<?xml version="1.0" encoding="UTF-8"?>
<svg viewBox="20 50 355 125" version="1.1" xmlns="http://www.w3.org/2000/svg" xmlns:xlink="http://www.w3.org/1999/xlink">
    <title>CryptoBot.CryptoPay</title>
    <defs>
        <linearGradient x1="100%" y1="50%" x2="0%" y2="50%" id="linearGradient-1">
            <stop stop-color="#44A3DD" stop-opacity="0" offset="0%"></stop>
            <stop stop-color="#44A3DD" offset="100%"></stop>
        </linearGradient>
        <path d="M2.72194715,0 L26.6266393,0 C28.4220313,0 30.0735687,0.988569903 30.9307924,2.57636085 L52.2150034,42 L23.7342299,42 C21.9388379,42 20.2873006,41.0114301 19.4300769,39.4236391 L0.330751009,4.04694928 C-0.386869546,2.71773798 0.101959028,1.05466888 1.42258019,0.332380469 C1.82138733,0.114260557 2.26806337,0 2.72194715,0 Z" id="path-2"></path>
    </defs>
    <g id="CryptoBot.CryptoPay" stroke="none" stroke-width="1" fill="none" fill-rule="evenodd">
        <rect fill="#44A3DD" x="0" y="0" width="375" height="225"></rect>
        <rect id="mask" fill="url(#linearGradient-1)" x="119.5" y="92" width="44.5" height="42"></rect>
        <g id="Crypto-Pay" transform="translate(165.313750, 103.122500)" fill="#FFFFFF" fill-rule="nonzero">
            <path d="M0,10.67 C0,9.075 0.23375,7.62208333 0.70125,6.31125 C1.16875,5.00041667 1.815,3.8775 2.64,2.9425 C3.465,2.0075 4.43208333,1.28333333 5.54125,0.77 C6.65041667,0.256666667 7.84666667,0 9.13,0 C10.3033333,0 11.3804167,0.169583333 12.36125,0.50875 C13.3420833,0.847916667 14.19,1.33375 14.905,1.96625 C15.62,2.59875 16.1883333,3.35958333 16.61,4.24875 C17.0316667,5.13791667 17.27,6.14166667 17.325,7.26 L13.1175,7.26 C13.0808333,6.67333333 12.9570833,6.13708333 12.74625,5.65125 C12.5354167,5.16541667 12.2558333,4.74375 11.9075,4.38625 C11.5591667,4.02875 11.1466667,3.74916667 10.67,3.5475 C10.1933333,3.34583333 9.66166667,3.245 9.075,3.245 C8.34166667,3.245 7.6725,3.42375 7.0675,3.78125 C6.4625,4.13875 5.94458333,4.63833333 5.51375,5.28 C5.08291667,5.92166667 4.74833333,6.6825 4.51,7.5625 C4.27166667,8.4425 4.1525,9.405 4.1525,10.45 C4.1525,11.495 4.27166667,12.4529167 4.51,13.32375 C4.74833333,14.1945833 5.07833333,14.9416667 5.5,15.565 C5.92166667,16.1883333 6.435,16.6741667 7.04,17.0225 C7.645,17.3708333 8.31416667,17.545 9.0475,17.545 C10.3125,17.545 11.28875,17.1645833 11.97625,16.40375 C12.66375,15.6429167 13.0716667,14.63 13.2,13.365 L17.4625,13.365 C17.3525,14.41 17.0958333,15.38625 16.6925,16.29375 C16.2891667,17.20125 15.7391667,17.9895833 15.0425,18.65875 C14.3458333,19.3279167 13.4979167,19.8504167 12.49875,20.22625 C11.4995833,20.6020833 10.3491667,20.79 9.0475,20.79 C7.70916667,20.79 6.48083333,20.5654167 5.3625,20.11625 C4.24416667,19.6670833 3.29083333,19.0070833 2.5025,18.13625 C1.71416667,17.2654167 1.1,16.2020833 0.66,14.94625 C0.22,13.6904167 0,12.265 0,10.67 Z" id="Path"></path>
            <path d="M19.9725,20.3775 L19.9725,6.1875 L23.63,6.1875 L23.6025,8.305 C23.9691667,7.645 24.455,7.10416667 25.06,6.6825 C25.665,6.26083333 26.38,6.05 27.205,6.05 C27.425,6.05 27.6908333,6.05916667 28.0025,6.0775 C28.3141667,6.09583333 28.5708333,6.1325 28.7725,6.1875 L28.7725,9.5425 C28.5708333,9.4875 28.3645833,9.45083333 28.15375,9.4325 C27.9429167,9.41416667 27.7275,9.405 27.5075,9.405 C26.2425,9.405 25.3166667,9.79458333 24.73,10.57375 C24.1433333,11.3529167 23.85,12.6316667 23.85,14.41 L23.85,20.3775 L19.9725,20.3775 Z" id="Path"></path>
            <path d="M33.84,6.1875 L35.655,13.2825 C35.9666667,14.4925 36.2416667,15.7025 36.48,16.9125 L36.6725,16.9125 L37.47,13.2825 L39.4775,6.1875 L43.575,6.1875 L38.8725,19.7175 C38.4325,20.9641667 38.0154167,21.9954167 37.62125,22.81125 C37.2270833,23.6270833 36.8008333,24.2733333 36.3425,24.75 C35.8841667,25.2266667 35.3754167,25.5566667 34.81625,25.74 C34.2570833,25.9233333 33.6016667,26.015 32.85,26.015 C32.4283333,26.015 32.0158333,26.0058333 31.6125,25.9875 C31.2091667,25.9691667 30.7966667,25.9233333 30.375,25.85 L30.375,22.77 C30.65,22.88 30.9204167,22.9441667 31.18625,22.9625 C31.4520833,22.9808333 31.7133333,22.99 31.97,22.99 C32.3,22.99 32.6116667,22.9533333 32.905,22.88 C33.1983333,22.8066667 33.455,22.6691667 33.675,22.4675 C33.895,22.2658333 34.0691667,22 34.1975,21.67 C34.3258333,21.34 34.39,20.9091667 34.39,20.3775 L29.495,6.1875 L33.84,6.1875 Z" id="Path"></path>
            <path d="M45.645,25.905 L45.645,6.1875 L49.2475,6.1875 L49.2475,8.085 C49.7608333,7.38833333 50.4025,6.85666667 51.1725,6.49 C51.9425,6.12333333 52.74,5.94 53.565,5.94 C54.445,5.94 55.2470833,6.105 55.97125,6.435 C56.6954167,6.765 57.31875,7.24625 57.84125,7.87875 C58.36375,8.51125 58.7670833,9.28125 59.05125,10.18875 C59.3354167,11.09625 59.4775,12.1275 59.4775,13.2825 C59.4775,15.6658333 58.9458333,17.49 57.8825,18.755 C56.8191667,20.02 55.38,20.6525 53.565,20.6525 C52.795,20.6525 52.0433333,20.4966667 51.31,20.185 C50.5766667,19.8733333 49.9808333,19.3966667 49.5225,18.755 L49.5225,25.905 L45.645,25.905 Z M52.355,17.71 C53.345,17.71 54.115,17.3158333 54.665,16.5275 C55.215,15.7391667 55.49,14.6575 55.49,13.2825 C55.49,11.9625 55.2195833,10.8991667 54.67875,10.0925 C54.1379167,9.28583333 53.4,8.8825 52.465,8.8825 C51.53,8.8825 50.7875,9.25833333 50.2375,10.01 C49.6875,10.7616667 49.4125,11.8525 49.4125,13.2825 C49.4125,14.6208333 49.6691667,15.6933333 50.1825,16.5 C50.6958333,17.3066667 51.42,17.71 52.355,17.71 Z" id="Shape"></path>
            <path d="M60.7775,6.1875 L62.84,6.1875 L62.84,2.585 L66.7175,2.585 L66.7175,6.1875 L69.3025,6.1875 L69.3025,9.0475 L66.7175,9.0475 L66.7175,15.4275 C66.7175,16.1975 66.8595833,16.7475 67.14375,17.0775 C67.4279167,17.4075 67.845,17.5725 68.395,17.5725 C68.4866667,17.5725 68.60125,17.5679167 68.73875,17.55875 C68.87625,17.5495833 69.0641667,17.5266667 69.3025,17.49 L69.3025,20.3775 C68.9358333,20.4691667 68.5920833,20.5333333 68.27125,20.57 C67.9504167,20.6066667 67.5791667,20.625 67.1575,20.625 C66.2225,20.625 65.4754167,20.4966667 64.91625,20.24 C64.3570833,19.9833333 63.8941667,19.58 63.5275,19.03 C63.2525,18.6266667 63.0691667,18.1775 62.9775,17.6825 C62.8858333,17.1875 62.84,16.4633333 62.84,15.51 L62.84,9.0475 L60.7775,9.0475 L60.7775,6.1875 Z" id="Path"></path>
            <path d="M70.9325,13.2825 C70.9325,12.1458333 71.1020833,11.1191667 71.44125,10.2025 C71.7804167,9.28583333 72.2616667,8.50208333 72.885,7.85125 C73.5083333,7.20041667 74.2645833,6.69625 75.15375,6.33875 C76.0429167,5.98125 77.0375,5.8025 78.1375,5.8025 C79.2375,5.8025 80.2366667,5.98125 81.135,6.33875 C82.0333333,6.69625 82.7941667,7.20041667 83.4175,7.85125 C84.0408333,8.50208333 84.5220833,9.28583333 84.86125,10.2025 C85.2004167,11.1191667 85.37,12.1458333 85.37,13.2825 C85.37,14.4008333 85.2004167,15.4229167 84.86125,16.34875 C84.5220833,17.2745833 84.0408333,18.0629167 83.4175,18.71375 C82.7941667,19.3645833 82.0333333,19.86875 81.135,20.22625 C80.2366667,20.58375 79.2375,20.7625 78.1375,20.7625 C77.0375,20.7625 76.0429167,20.58375 75.15375,20.22625 C74.2645833,19.86875 73.5083333,19.3645833 72.885,18.71375 C72.2616667,18.0629167 71.7804167,17.2745833 71.44125,16.34875 C71.1020833,15.4229167 70.9325,14.4008333 70.9325,13.2825 Z M74.975,13.2825 C74.975,14.7125 75.2408333,15.82625 75.7725,16.62375 C76.3041667,17.42125 77.0925,17.82 78.1375,17.82 C79.1825,17.82 79.9754167,17.42125 80.51625,16.62375 C81.0570833,15.82625 81.3275,14.7125 81.3275,13.2825 C81.3275,11.8525 81.0570833,10.73875 80.51625,9.94125 C79.9754167,9.14375 79.1825,8.745 78.1375,8.745 C77.0925,8.745 76.3041667,9.14375 75.7725,9.94125 C75.2408333,10.73875 74.975,11.8525 74.975,13.2825 Z" id="Shape"></path>
            <path d="M94.075,0.4125 L100.785,0.4125 C101.848333,0.4125 102.810833,0.485833333 103.6725,0.6325 C104.534167,0.779166667 105.285833,1.03583333 105.9275,1.4025 C106.9175,1.97083333 107.655417,2.73166667 108.14125,3.685 C108.627083,4.63833333 108.87,5.7475 108.87,7.0125 C108.87,8.2225 108.627083,9.28583333 108.14125,10.2025 C107.655417,11.1191667 106.945,11.8616667 106.01,12.43 C105.405,12.7966667 104.70375,13.0533333 103.90625,13.2 C103.10875,13.3466667 102.059167,13.42 100.7575,13.42 L98.1725,13.42 L98.1725,20.3775 L94.075,20.3775 L94.075,0.4125 Z M98.1725,10.12 L100.4,10.12 C101.005,10.12 101.564167,10.0741667 102.0775,9.9825 C102.590833,9.89083333 103.04,9.72125 103.425,9.47375 C103.81,9.22625 104.1125,8.87791667 104.3325,8.42875 C104.5525,7.97958333 104.6625,7.40666667 104.6625,6.71 C104.6625,6.06833333 104.53875,5.555 104.29125,5.17 C104.04375,4.785 103.722917,4.48708333 103.32875,4.27625 C102.934583,4.06541667 102.485417,3.92333333 101.98125,3.85 C101.477083,3.77666667 100.968333,3.74 100.455,3.74 L98.1725,3.74 L98.1725,10.12 Z" id="Shape"></path>
            <path d="M110.115,16.4725 C110.115,15.4275 110.399167,14.5933333 110.9675,13.97 C111.535833,13.3466667 112.27375,12.8654167 113.18125,12.52625 C114.08875,12.1870833 115.101667,11.9441667 116.22,11.7975 C117.338333,11.6508333 118.438333,11.5225 119.52,11.4125 L119.52,10.6975 C119.52,9.9825 119.318333,9.4325 118.915,9.0475 C118.511667,8.6625 117.9525,8.47 117.2375,8.47 C116.4125,8.47 115.784583,8.65333333 115.35375,9.02 C114.922917,9.38666667 114.689167,9.89083333 114.6525,10.5325 L110.6375,10.5325 C110.7475,8.9925 111.389167,7.81916667 112.5625,7.0125 C113.735833,6.20583333 115.303333,5.8025 117.265,5.8025 C118.31,5.8025 119.212917,5.9125 119.97375,6.1325 C120.734583,6.3525 121.39,6.7375 121.94,7.2875 C122.215,7.5625 122.444167,7.85125 122.6275,8.15375 C122.810833,8.45625 122.948333,8.79541667 123.04,9.17125 C123.131667,9.54708333 123.195833,9.9825 123.2325,10.4775 C123.269167,10.9725 123.2875,11.55 123.2875,12.21 L123.2875,15.4825 C123.2875,16.4725 123.315,17.3891667 123.37,18.2325 C123.425,19.0758333 123.525833,19.7908333 123.6725,20.3775 L120.18,20.3775 C120.125,20.0475 120.08375,19.7358333 120.05625,19.4425 C120.02875,19.1491667 120.005833,18.865 119.9875,18.59 C119.694167,18.92 119.391667,19.2133333 119.08,19.47 C118.768333,19.7266667 118.429167,19.9420833 118.0625,20.11625 C117.695833,20.2904167 117.287917,20.4233333 116.83875,20.515 C116.389583,20.6066667 115.871667,20.6525 115.285,20.6525 C113.69,20.6525 112.429583,20.3041667 111.50375,19.6075 C110.577917,18.9108333 110.115,17.8658333 110.115,16.4725 Z M116.33,18.0125 C117.375,18.0125 118.167917,17.72375 118.70875,17.14625 C119.249583,16.56875 119.52,15.6383333 119.52,14.355 L119.52,13.8875 C118.841667,13.9791667 118.181667,14.0616667 117.54,14.135 C116.898333,14.2083333 116.325417,14.3229167 115.82125,14.47875 C115.317083,14.6345833 114.91375,14.8545833 114.61125,15.13875 C114.30875,15.4229167 114.1575,15.8308333 114.1575,16.3625 C114.1575,16.8941667 114.359167,17.3020833 114.7625,17.58625 C115.165833,17.8704167 115.688333,18.0125 116.33,18.0125 Z" id="Shape"></path>
            <path d="M129.2625,6.1875 L131.0775,13.2825 C131.389167,14.4925 131.664167,15.7025 131.9025,16.9125 L132.095,16.9125 L132.8925,13.2825 L134.9,6.1875 L138.9975,6.1875 L134.295,19.7175 C133.855,20.9641667 133.437917,21.9954167 133.04375,22.81125 C132.649583,23.6270833 132.223333,24.2733333 131.765,24.75 C131.306667,25.2266667 130.797917,25.5566667 130.23875,25.74 C129.679583,25.9233333 129.024167,26.015 128.2725,26.015 C127.850833,26.015 127.438333,26.0058333 127.035,25.9875 C126.631667,25.9691667 126.219167,25.9233333 125.7975,25.85 L125.7975,22.77 C126.0725,22.88 126.342917,22.9441667 126.60875,22.9625 C126.874583,22.9808333 127.135833,22.99 127.3925,22.99 C127.7225,22.99 128.034167,22.9533333 128.3275,22.88 C128.620833,22.8066667 128.8775,22.6691667 129.0975,22.4675 C129.3175,22.2658333 129.491667,22 129.62,21.67 C129.748333,21.34 129.8125,20.9091667 129.8125,20.3775 L124.9175,6.1875 L129.2625,6.1875 Z" id="Path"></path>
        </g>
        <g id="Group" transform="translate(75.000000, 92.000000)" fill="#FFFFFF">
            <g id="Path" transform="translate(-0.000000, 0.000000)">
                <g>
                    <use fill-opacity="0.5" style="mix-blend-mode: soft-light;" xlink:href="#path-2"></use>
                    <use fill-opacity="0.6" xlink:href="#path-2"></use>
                </g>
                <path d="M73.643684,0 C74.0975678,0 74.5442438,0.114260557 74.943051,0.332380469 C76.2236533,1.03278135 76.7221109,2.61780981 76.0968053,3.92522764 L76.0348801,4.04694928 L56.9355543,39.4236391 C56.1059829,40.960211 54.5325175,41.9355978 52.8046779,41.996927 L52.6314012,42 L24.5945392,42 L23.7342299,42 L23.5605817,41.9969138 C22.6574976,41.9647901 21.7965981,41.6829644 21.0620594,41.2018224 C21.4300975,41.4145062 21.8466419,41.551556 22.2908729,41.5919056 C22.3381212,41.5961971 22.7189484,41.6317551 23.1426863,41.5172477 C23.3218902,41.4688211 23.9834721,41.3133443 24.6844872,40.6534111 C24.8941116,40.4560714 25.1872163,40.0323122 25.5638012,39.3821336 L45.4348388,2.57636085 C46.2644101,1.03978897 47.8378756,0.0644022425 49.5657151,0.00307299695 L49.7389918,0 L73.643684,0 Z"></path>
            </g>
        </g>
    </g>
</svg>
