<svg version="1.1" xmlns="http://www.w3.org/2000/svg" xmlns:xlink="http://www.w3.org/1999/xlink" x="0px" y="0px"
	 viewBox="0 0 960 560" enable-background="new 0 0 960 560" xml:space="preserve">
<rect fill="#41A4DE" width="960" height="560"/>
<g>
	<path fill="#BFE6F7" d="M524.95,332.2L406.27,395c-7.9,0-15.44-2.52-21.63-6.98c-4.4-3.17-8.12-7.32-10.82-12.24l-103.3-188.57
		c-5.48-10,1.75-22.21,13.15-22.21h131.91c10.96,0,21.04,5.98,26.31,15.59L480,250.15L524.95,332.2z"/>
	<path fill="#FFFFFF" d="M689.48,187.21l-103.3,188.57c-6.49,11.85-18.93,19.22-32.45,19.22H406.27c-7.9,0-15.44-2.52-21.63-6.98
		c0-0.01,0.01-0.01,0.01-0.02c14,10,24.94-6.74,28.22-12.12S480,250.15,480,250.15l38.11-69.56c5.27-9.61,15.35-15.59,26.31-15.59
		h131.91C687.73,165,694.96,177.21,689.48,187.21z"/>
</g>
</svg>
